<?xml version="1.0" encoding="UTF-8" standalone="no"?>
<!DOCTYPE svg PUBLIC "-//W3C//DTD SVG 1.1//EN"
 "http://www.w3.org/Graphics/SVG/1.1/DTD/svg11.dtd">
<!-- Generated by graphviz version 2.47.0 (20210316.0004)
 -->
<!-- Title: dbml Pages: 1 -->
<svg width="1467pt" height="1068pt"
 viewBox="0.00 0.00 1467.34 1068.20" xmlns="http://www.w3.org/2000/svg" xmlns:xlink="http://www.w3.org/1999/xlink">
<g id="graph0" class="graph" transform="scale(1 1) rotate(0) translate(4 1064.2)">
<title>dbml</title>
<!-- machines -->
<g id="machines" class="node">
<title>machines</title>
<ellipse fill="none" stroke="black" stroke-width="0" cx="775.63" cy="-760.39" rx="202.88" ry="299.63"/>
<polygon fill="#1d71b8" stroke="transparent" points="634.63,-910.39 634.63,-970.39 917.63,-970.39 917.63,-910.39 634.63,-910.39"/>
<polygon fill="none" stroke="#29235c" points="634.63,-910.39 634.63,-970.39 917.63,-970.39 917.63,-910.39 634.63,-910.39"/>
<text text-anchor="start" x="645.43" y="-931.59" font-family="Helvetica,sans-Serif" font-weight="bold" font-size="32.00" fill="#ffffff"> &#160;&#160;&#160;&#160;&#160;&#160;machines &#160;&#160;&#160;&#160;&#160;&#160;</text>
<polygon fill="#e7e2dd" stroke="transparent" points="634.63,-850.39 634.63,-910.39 917.63,-910.39 917.63,-850.39 634.63,-850.39"/>
<polygon fill="none" stroke="#29235c" points="634.63,-850.39 634.63,-910.39 917.63,-910.39 917.63,-850.39 634.63,-850.39"/>
<text text-anchor="start" x="645.63" y="-871.59" font-family="Helvetica,sans-Serif" font-weight="bold" font-size="32.00" fill="#29235c">id</text>
<text text-anchor="start" x="670.52" y="-871.59" font-family="Helvetica,sans-Serif" font-size="32.00" fill="#29235c"> &#160;&#160;&#160;</text>
<text text-anchor="start" x="872.85" y="-871.59" font-family="Helvetica,sans-Serif" font-style="italic" font-size="32.00" fill="#29235c">int</text>
<polygon fill="#e7e2dd" stroke="transparent" points="634.63,-790.39 634.63,-850.39 917.63,-850.39 917.63,-790.39 634.63,-790.39"/>
<polygon fill="none" stroke="#29235c" points="634.63,-790.39 634.63,-850.39 917.63,-850.39 917.63,-790.39 634.63,-790.39"/>
<text text-anchor="start" x="645.63" y="-810.59" font-family="Helvetica,sans-Serif" font-size="32.00" fill="#29235c">marque &#160;&#160;&#160;</text>
<text text-anchor="start" x="799.96" y="-811.59" font-family="Helvetica,sans-Serif" font-style="italic" font-size="32.00" fill="#29235c">varchar</text>
<polygon fill="#e7e2dd" stroke="transparent" points="634.63,-730.39 634.63,-790.39 917.63,-790.39 917.63,-730.39 634.63,-730.39"/>
<polygon fill="none" stroke="#29235c" points="634.63,-730.39 634.63,-790.39 917.63,-790.39 917.63,-730.39 634.63,-730.39"/>
<text text-anchor="start" x="645.63" y="-750.59" font-family="Helvetica,sans-Serif" font-size="32.00" fill="#29235c">os &#160;&#160;&#160;</text>
<text text-anchor="start" x="799.96" y="-751.59" font-family="Helvetica,sans-Serif" font-style="italic" font-size="32.00" fill="#29235c">varchar</text>
<polygon fill="#e7e2dd" stroke="transparent" points="634.63,-670.39 634.63,-730.39 917.63,-730.39 917.63,-670.39 634.63,-670.39"/>
<polygon fill="none" stroke="#29235c" points="634.63,-670.39 634.63,-730.39 917.63,-730.39 917.63,-670.39 634.63,-670.39"/>
<text text-anchor="start" x="645.63" y="-690.59" font-family="Helvetica,sans-Serif" font-size="32.00" fill="#29235c">ram &#160;&#160;&#160;</text>
<text text-anchor="start" x="872.85" y="-691.59" font-family="Helvetica,sans-Serif" font-style="italic" font-size="32.00" fill="#29235c">int</text>
<polygon fill="#e7e2dd" stroke="transparent" points="634.63,-610.39 634.63,-670.39 917.63,-670.39 917.63,-610.39 634.63,-610.39"/>
<polygon fill="none" stroke="#29235c" points="634.63,-610.39 634.63,-670.39 917.63,-670.39 917.63,-610.39 634.63,-610.39"/>
<text text-anchor="start" x="645.63" y="-630.59" font-family="Helvetica,sans-Serif" font-size="32.00" fill="#29235c">date_achat &#160;&#160;&#160;</text>
<text text-anchor="start" x="844.37" y="-631.59" font-family="Helvetica,sans-Serif" font-style="italic" font-size="32.00" fill="#29235c">date</text>
<polygon fill="#e7e2dd" stroke="transparent" points="634.63,-550.39 634.63,-610.39 917.63,-610.39 917.63,-550.39 634.63,-550.39"/>
<polygon fill="none" stroke="#29235c" points="634.63,-550.39 634.63,-610.39 917.63,-610.39 917.63,-550.39 634.63,-550.39"/>
<text text-anchor="start" x="645.63" y="-570.59" font-family="Helvetica,sans-Serif" font-size="32.00" fill="#29235c">id_utilisateur &#160;&#160;&#160;</text>
<text text-anchor="start" x="872.85" y="-571.59" font-family="Helvetica,sans-Serif" font-style="italic" font-size="32.00" fill="#29235c">int</text>
<polygon fill="none" stroke="#29235c" stroke-width="2" points="633.13,-549.39 633.13,-971.39 918.13,-971.39 918.13,-549.39 633.13,-549.39"/>
</g>
<!-- utilisateurs -->
<g id="utilisateurs" class="node">
<title>utilisateurs</title>
<ellipse fill="none" stroke="black" stroke-width="0" cx="1245.09" cy="-850.39" rx="214.01" ry="172.57"/>
<polygon fill="#1d71b8" stroke="transparent" points="1096.09,-910.39 1096.09,-970.39 1395.09,-970.39 1395.09,-910.39 1096.09,-910.39"/>
<polygon fill="none" stroke="#29235c" points="1096.09,-910.39 1096.09,-970.39 1395.09,-970.39 1395.09,-910.39 1096.09,-910.39"/>
<text text-anchor="start" x="1106.89" y="-931.59" font-family="Helvetica,sans-Serif" font-weight="bold" font-size="32.00" fill="#ffffff"> &#160;&#160;&#160;&#160;&#160;&#160;utilisateurs &#160;&#160;&#160;&#160;&#160;&#160;</text>
<polygon fill="#e7e2dd" stroke="transparent" points="1096.09,-850.39 1096.09,-910.39 1395.09,-910.39 1395.09,-850.39 1096.09,-850.39"/>
<polygon fill="none" stroke="#29235c" points="1096.09,-850.39 1096.09,-910.39 1395.09,-910.39 1395.09,-850.39 1096.09,-850.39"/>
<text text-anchor="start" x="1107.09" y="-871.59" font-family="Helvetica,sans-Serif" font-weight="bold" font-size="32.00" fill="#29235c">id</text>
<text text-anchor="start" x="1131.98" y="-871.59" font-family="Helvetica,sans-Serif" font-size="32.00" fill="#29235c"> &#160;&#160;&#160;</text>
<text text-anchor="start" x="1350.31" y="-871.59" font-family="Helvetica,sans-Serif" font-style="italic" font-size="32.00" fill="#29235c">int</text>
<polygon fill="#e7e2dd" stroke="transparent" points="1096.09,-790.39 1096.09,-850.39 1395.09,-850.39 1395.09,-790.39 1096.09,-790.39"/>
<polygon fill="none" stroke="#29235c" points="1096.09,-790.39 1096.09,-850.39 1395.09,-850.39 1395.09,-790.39 1096.09,-790.39"/>
<text text-anchor="start" x="1107.09" y="-810.59" font-family="Helvetica,sans-Serif" font-size="32.00" fill="#29235c">nom &#160;&#160;&#160;</text>
<text text-anchor="start" x="1277.42" y="-811.59" font-family="Helvetica,sans-Serif" font-style="italic" font-size="32.00" fill="#29235c">varchar</text>
<polygon fill="#e7e2dd" stroke="transparent" points="1096.09,-730.39 1096.09,-790.39 1395.09,-790.39 1395.09,-730.39 1096.09,-730.39"/>
<polygon fill="none" stroke="#29235c" points="1096.09,-730.39 1096.09,-790.39 1395.09,-790.39 1395.09,-730.39 1096.09,-730.39"/>
<text text-anchor="start" x="1107.09" y="-750.59" font-family="Helvetica,sans-Serif" font-size="32.00" fill="#29235c">prenom &#160;&#160;&#160;</text>
<text text-anchor="start" x="1277.42" y="-751.59" font-family="Helvetica,sans-Serif" font-style="italic" font-size="32.00" fill="#29235c">varchar</text>
<polygon fill="none" stroke="#29235c" stroke-width="2" points="1094.59,-729.39 1094.59,-971.39 1395.59,-971.39 1395.59,-729.39 1094.59,-729.39"/>
</g>
<!-- machines&#45;&gt;utilisateurs -->
<!-- machines&#45;&gt;utilisateurs -->
<g id="edge2" class="edge">
<title>machines:e&#45;&gt;utilisateurs:w</title>
<path fill="none" stroke="#29235c" stroke-width="3" d="M918.63,-580.39C1069.85,-580.39 946.23,-867.06 1085.1,-879.94"/>
<polygon fill="#29235c" stroke="#29235c" stroke-width="3" points="1084.94,-883.44 1095.09,-880.39 1085.26,-876.44 1084.94,-883.44"/>
<text text-anchor="middle" x="1086.2" y="-889.99" font-family="Helvetica,sans-Serif" font-size="32.00" fill="#29235c">1</text>
<text text-anchor="middle" x="924.86" y="-589.99" font-family="Helvetica,sans-Serif" font-size="32.00" fill="#29235c">*</text>
</g>
<!-- logiciels -->
<g id="logiciels" class="node">
<title>logiciels</title>
<ellipse fill="none" stroke="black" stroke-width="0" cx="260.22" cy="-790.39" rx="190.84" ry="257.27"/>
<polygon fill="#1d71b8" stroke="transparent" points="127.22,-910.39 127.22,-970.39 393.22,-970.39 393.22,-910.39 127.22,-910.39"/>
<polygon fill="none" stroke="#29235c" points="127.22,-910.39 127.22,-970.39 393.22,-970.39 393.22,-910.39 127.22,-910.39"/>
<text text-anchor="start" x="141.08" y="-931.59" font-family="Helvetica,sans-Serif" font-weight="bold" font-size="32.00" fill="#ffffff"> &#160;&#160;&#160;&#160;&#160;&#160;logiciels &#160;&#160;&#160;&#160;&#160;&#160;</text>
<polygon fill="#e7e2dd" stroke="transparent" points="127.22,-850.39 127.22,-910.39 393.22,-910.39 393.22,-850.39 127.22,-850.39"/>
<polygon fill="none" stroke="#29235c" points="127.22,-850.39 127.22,-910.39 393.22,-910.39 393.22,-850.39 127.22,-850.39"/>
<text text-anchor="start" x="138.22" y="-871.59" font-family="Helvetica,sans-Serif" font-weight="bold" font-size="32.00" fill="#29235c">id</text>
<text text-anchor="start" x="163.1" y="-871.59" font-family="Helvetica,sans-Serif" font-size="32.00" fill="#29235c"> &#160;&#160;&#160;</text>
<text text-anchor="start" x="348.43" y="-871.59" font-family="Helvetica,sans-Serif" font-style="italic" font-size="32.00" fill="#29235c">int</text>
<polygon fill="#e7e2dd" stroke="transparent" points="127.22,-790.39 127.22,-850.39 393.22,-850.39 393.22,-790.39 127.22,-790.39"/>
<polygon fill="none" stroke="#29235c" points="127.22,-790.39 127.22,-850.39 393.22,-850.39 393.22,-790.39 127.22,-790.39"/>
<text text-anchor="start" x="138.22" y="-810.59" font-family="Helvetica,sans-Serif" font-size="32.00" fill="#29235c">nom &#160;&#160;&#160;</text>
<text text-anchor="start" x="275.54" y="-811.59" font-family="Helvetica,sans-Serif" font-style="italic" font-size="32.00" fill="#29235c">varchar</text>
<polygon fill="#e7e2dd" stroke="transparent" points="127.22,-730.39 127.22,-790.39 393.22,-790.39 393.22,-730.39 127.22,-730.39"/>
<polygon fill="none" stroke="#29235c" points="127.22,-730.39 127.22,-790.39 393.22,-790.39 393.22,-730.39 127.22,-730.39"/>
<text text-anchor="start" x="138.22" y="-750.59" font-family="Helvetica,sans-Serif" font-size="32.00" fill="#29235c">id_machine &#160;&#160;&#160;</text>
<text text-anchor="start" x="348.43" y="-751.59" font-family="Helvetica,sans-Serif" font-style="italic" font-size="32.00" fill="#29235c">int</text>
<polygon fill="#e7e2dd" stroke="transparent" points="127.22,-670.39 127.22,-730.39 393.22,-730.39 393.22,-670.39 127.22,-670.39"/>
<polygon fill="none" stroke="#29235c" points="127.22,-670.39 127.22,-730.39 393.22,-730.39 393.22,-670.39 127.22,-670.39"/>
<text text-anchor="start" x="137.87" y="-690.59" font-family="Helvetica,sans-Serif" font-size="32.00" fill="#29235c">version &#160;&#160;&#160;</text>
<text text-anchor="start" x="275.88" y="-691.59" font-family="Helvetica,sans-Serif" font-style="italic" font-size="32.00" fill="#29235c">varchar</text>
<polygon fill="#e7e2dd" stroke="transparent" points="127.22,-610.39 127.22,-670.39 393.22,-670.39 393.22,-610.39 127.22,-610.39"/>
<polygon fill="none" stroke="#29235c" points="127.22,-610.39 127.22,-670.39 393.22,-670.39 393.22,-610.39 127.22,-610.39"/>
<text text-anchor="start" x="138.22" y="-630.59" font-family="Helvetica,sans-Serif" font-size="32.00" fill="#29235c">licence &#160;&#160;&#160;</text>
<text text-anchor="start" x="275.54" y="-631.59" font-family="Helvetica,sans-Serif" font-style="italic" font-size="32.00" fill="#29235c">varchar</text>
<polygon fill="none" stroke="#29235c" stroke-width="2" points="126.22,-609.39 126.22,-971.39 394.22,-971.39 394.22,-609.39 126.22,-609.39"/>
</g>
<!-- logiciels&#45;&gt;machines -->
<!-- logiciels&#45;&gt;machines -->
<g id="edge6" class="edge">
<title>logiciels:e&#45;&gt;machines:w</title>
<path fill="none" stroke="#29235c" stroke-width="3" d="M394.22,-760.39C509.75,-760.39 514.43,-873.46 623.47,-880.08"/>
<polygon fill="#29235c" stroke="#29235c" stroke-width="3" points="623.53,-883.59 633.63,-880.39 623.74,-876.59 623.53,-883.59"/>
<text text-anchor="middle" x="624.74" y="-889.99" font-family="Helvetica,sans-Serif" font-size="32.00" fill="#29235c">1</text>
<text text-anchor="middle" x="387.99" y="-769.99" font-family="Helvetica,sans-Serif" font-size="32.00" fill="#29235c">*</text>
</g>
<!-- techniciens -->
<g id="techniciens" class="node">
<title>techniciens</title>
<ellipse fill="none" stroke="black" stroke-width="0" cx="775.63" cy="-270.39" rx="219.41" ry="172.57"/>
<polygon fill="#1d71b8" stroke="transparent" points="622.63,-330.39 622.63,-390.39 928.63,-390.39 928.63,-330.39 622.63,-330.39"/>
<polygon fill="none" stroke="#29235c" points="622.63,-330.39 622.63,-390.39 928.63,-390.39 928.63,-330.39 622.63,-330.39"/>
<text text-anchor="start" x="633.36" y="-351.59" font-family="Helvetica,sans-Serif" font-weight="bold" font-size="32.00" fill="#ffffff"> &#160;&#160;&#160;&#160;&#160;&#160;techniciens &#160;&#160;&#160;&#160;&#160;&#160;</text>
<polygon fill="#e7e2dd" stroke="transparent" points="622.63,-270.39 622.63,-330.39 928.63,-330.39 928.63,-270.39 622.63,-270.39"/>
<polygon fill="none" stroke="#29235c" points="622.63,-270.39 622.63,-330.39 928.63,-330.39 928.63,-270.39 622.63,-270.39"/>
<text text-anchor="start" x="633.63" y="-291.59" font-family="Helvetica,sans-Serif" font-weight="bold" font-size="32.00" fill="#29235c">id</text>
<text text-anchor="start" x="658.52" y="-291.59" font-family="Helvetica,sans-Serif" font-size="32.00" fill="#29235c"> &#160;&#160;&#160;</text>
<text text-anchor="start" x="883.85" y="-291.59" font-family="Helvetica,sans-Serif" font-style="italic" font-size="32.00" fill="#29235c">int</text>
<polygon fill="#e7e2dd" stroke="transparent" points="622.63,-210.39 622.63,-270.39 928.63,-270.39 928.63,-210.39 622.63,-210.39"/>
<polygon fill="none" stroke="#29235c" points="622.63,-210.39 622.63,-270.39 928.63,-270.39 928.63,-210.39 622.63,-210.39"/>
<text text-anchor="start" x="633.63" y="-230.59" font-family="Helvetica,sans-Serif" font-size="32.00" fill="#29235c">nom &#160;&#160;&#160;</text>
<text text-anchor="start" x="810.96" y="-231.59" font-family="Helvetica,sans-Serif" font-style="italic" font-size="32.00" fill="#29235c">varchar</text>
<polygon fill="#e7e2dd" stroke="transparent" points="622.63,-150.39 622.63,-210.39 928.63,-210.39 928.63,-150.39 622.63,-150.39"/>
<polygon fill="none" stroke="#29235c" points="622.63,-150.39 622.63,-210.39 928.63,-210.39 928.63,-150.39 622.63,-150.39"/>
<text text-anchor="start" x="633.63" y="-170.59" font-family="Helvetica,sans-Serif" font-size="32.00" fill="#29235c">prenom &#160;&#160;&#160;</text>
<text text-anchor="start" x="810.96" y="-171.59" font-family="Helvetica,sans-Serif" font-style="italic" font-size="32.00" fill="#29235c">varchar</text>
<polygon fill="none" stroke="#29235c" stroke-width="2" points="621.63,-149.39 621.63,-391.39 929.63,-391.39 929.63,-149.39 621.63,-149.39"/>
</g>
<!-- interventions -->
<g id="interventions" class="node">
<title>interventions</title>
<ellipse fill="none" stroke="black" stroke-width="0" cx="260.22" cy="-257.39" rx="260.43" ry="257.27"/>
<polygon fill="#1d71b8" stroke="transparent" points="78.22,-377.39 78.22,-437.39 442.22,-437.39 442.22,-377.39 78.22,-377.39"/>
<polygon fill="none" stroke="#29235c" points="78.22,-377.39 78.22,-437.39 442.22,-437.39 442.22,-377.39 78.22,-377.39"/>
<text text-anchor="start" x="107.28" y="-398.59" font-family="Helvetica,sans-Serif" font-weight="bold" font-size="32.00" fill="#ffffff"> &#160;&#160;&#160;&#160;&#160;&#160;interventions &#160;&#160;&#160;&#160;&#160;&#160;</text>
<polygon fill="#e7e2dd" stroke="transparent" points="78.22,-317.39 78.22,-377.39 442.22,-377.39 442.22,-317.39 78.22,-317.39"/>
<polygon fill="none" stroke="#29235c" points="78.22,-317.39 78.22,-377.39 442.22,-377.39 442.22,-317.39 78.22,-317.39"/>
<text text-anchor="start" x="89.22" y="-338.59" font-family="Helvetica,sans-Serif" font-weight="bold" font-size="32.00" fill="#29235c">id</text>
<text text-anchor="start" x="114.1" y="-338.59" font-family="Helvetica,sans-Serif" font-size="32.00" fill="#29235c"> &#160;&#160;&#160;</text>
<text text-anchor="start" x="397.43" y="-338.59" font-family="Helvetica,sans-Serif" font-style="italic" font-size="32.00" fill="#29235c">int</text>
<polygon fill="#e7e2dd" stroke="transparent" points="78.22,-257.39 78.22,-317.39 442.22,-317.39 442.22,-257.39 78.22,-257.39"/>
<polygon fill="none" stroke="#29235c" points="78.22,-257.39 78.22,-317.39 442.22,-317.39 442.22,-257.39 78.22,-257.39"/>
<text text-anchor="start" x="89.22" y="-277.59" font-family="Helvetica,sans-Serif" font-size="32.00" fill="#29235c">id_technicien &#160;&#160;&#160;</text>
<text text-anchor="start" x="397.43" y="-278.59" font-family="Helvetica,sans-Serif" font-style="italic" font-size="32.00" fill="#29235c">int</text>
<polygon fill="#e7e2dd" stroke="transparent" points="78.22,-197.39 78.22,-257.39 442.22,-257.39 442.22,-197.39 78.22,-197.39"/>
<polygon fill="none" stroke="#29235c" points="78.22,-197.39 78.22,-257.39 442.22,-257.39 442.22,-197.39 78.22,-197.39"/>
<text text-anchor="start" x="88.72" y="-217.59" font-family="Helvetica,sans-Serif" font-size="32.00" fill="#29235c">date_intervention &#160;&#160;&#160;</text>
<text text-anchor="start" x="369.09" y="-218.59" font-family="Helvetica,sans-Serif" font-style="italic" font-size="32.00" fill="#29235c">date</text>
<polygon fill="#e7e2dd" stroke="transparent" points="78.22,-137.39 78.22,-197.39 442.22,-197.39 442.22,-137.39 78.22,-137.39"/>
<polygon fill="none" stroke="#29235c" points="78.22,-137.39 78.22,-197.39 442.22,-197.39 442.22,-137.39 78.22,-137.39"/>
<text text-anchor="start" x="89.22" y="-157.59" font-family="Helvetica,sans-Serif" font-size="32.00" fill="#29235c">id_machine &#160;&#160;&#160;</text>
<text text-anchor="start" x="397.43" y="-158.59" font-family="Helvetica,sans-Serif" font-style="italic" font-size="32.00" fill="#29235c">int</text>
<polygon fill="#e7e2dd" stroke="transparent" points="78.22,-77.39 78.22,-137.39 442.22,-137.39 442.22,-77.39 78.22,-77.39"/>
<polygon fill="none" stroke="#29235c" points="78.22,-77.39 78.22,-137.39 442.22,-137.39 442.22,-77.39 78.22,-77.39"/>
<text text-anchor="start" x="89.22" y="-97.59" font-family="Helvetica,sans-Serif" font-size="32.00" fill="#29235c">action &#160;&#160;&#160;</text>
<text text-anchor="start" x="324.54" y="-98.59" font-family="Helvetica,sans-Serif" font-style="italic" font-size="32.00" fill="#29235c">varchar</text>
<polygon fill="none" stroke="#29235c" stroke-width="2" points="77.22,-76.39 77.22,-438.39 443.22,-438.39 443.22,-76.39 77.22,-76.39"/>
</g>
<!-- interventions&#45;&gt;machines -->
<!-- interventions&#45;&gt;machines -->
<g id="edge4" class="edge">
<title>interventions:e&#45;&gt;machines:w</title>
<path fill="none" stroke="#29235c" stroke-width="3" d="M443.22,-167.39C603.69,-167.39 475.41,-850.08 623.48,-879.41"/>
<polygon fill="#29235c" stroke="#29235c" stroke-width="3" points="623.35,-882.92 633.63,-880.39 624.01,-875.95 623.35,-882.92"/>
<text text-anchor="middle" x="642.53" y="-889.99" font-family="Helvetica,sans-Serif" font-size="32.00" fill="#29235c">1</text>
<text text-anchor="middle" x="436.99" y="-138.59" font-family="Helvetica,sans-Serif" font-size="32.00" fill="#29235c">*</text>
</g>
<!-- interventions&#45;&gt;techniciens -->
<!-- interventions&#45;&gt;techniciens -->
<g id="edge8" class="edge">
<title>interventions:e&#45;&gt;techniciens:w</title>
<path fill="none" stroke="#29235c" stroke-width="3" d="M443.22,-287.39C519.15,-287.39 540.26,-299.25 611.27,-300.31"/>
<polygon fill="#29235c" stroke="#29235c" stroke-width="3" points="611.61,-303.81 621.63,-300.39 611.66,-296.81 611.61,-303.81"/>
<text text-anchor="middle" x="612.74" y="-309.99" font-family="Helvetica,sans-Serif" font-size="32.00" fill="#29235c">1</text>
<text text-anchor="middle" x="436.99" y="-296.99" font-family="Helvetica,sans-Serif" font-size="32.00" fill="#29235c">*</text>
</g>
</g>
</svg>
